<svg id="Capa_1" enable-background="new 0 0 512 512" height="512" viewBox="0 0 512 512" width="512" xmlns="http://www.w3.org/2000/svg"><g><g><g><g><g><g><g><g><g><g><g><g><g><g><g><g><g><g><g><g><g><path d="m81.524 443.336c-50.157-46.735-81.524-113.372-81.524-187.336 0-141.385 114.615-256 256-256s256 114.615 256 256c0 73.964-31.367 140.601-81.524 187.336z" fill="#00c8c8"/></g></g></g></g></g></g></g></g></g></g></g></g></g></g></g></g></g></g></g></g><g fill="#00a0aa"><path d="m297.037 443.336-108.941-108.941v108.941z"/><path d="m510.741 281.55-183.121-183.121-128.395 205.26 139.647 139.647h91.604c44.31-41.286 73.955-98.106 80.265-161.786z"/></g><g><path d="m374.702 482.876c20.359-10.674 39.104-24.008 55.774-39.54l-8.924-55.201c-4.517-27.939-28.638-48.475-56.941-48.475h-217.222c-28.303 0-52.424 20.535-56.941 48.475l-8.924 55.201c16.712 15.572 35.511 28.935 55.93 39.622z" fill="#fff"/></g><g><path d="m430.476 443.335-8.924-55.201c-4.517-27.939-28.638-48.475-56.941-48.475h-108.967v143.256l119.058-.041c20.359-10.672 39.104-24.006 55.774-39.539z" fill="#e9edf5"/></g><g><g><path d="m256 385.184c-22.872 0-41.414-18.542-41.414-41.414v-49.634h82.828v49.634c0 22.872-18.542 41.414-41.414 41.414z" fill="#faa68e"/></g></g><g><g><path d="m255.644 294.136v91.039c.119.001.237.009.356.009 22.872 0 41.414-18.542 41.414-41.414v-49.634z" fill="#e09380"/></g></g><g><g><path d="m256 322.696c-52.077 0-94.295-42.217-94.295-94.294v-44.954c0-52.077 42.217-94.294 94.294-94.294 52.077 0 94.294 42.217 94.294 94.294v44.954c.001 52.077-42.216 94.294-94.293 94.294z" fill="#ffbeaa"/></g></g><g><g><path d="m256 89.152c-.119 0-.237.004-.356.005v233.534c.119 0 .237.004.356.004 52.077 0 94.294-42.217 94.294-94.294v-44.955c0-52.076-42.217-94.294-94.294-94.294z" fill="#faa68e"/></g></g><g><path d="m323.904 419.449h-135.808v-85.054l-50.823 5.154v143.314c35.486 18.609 75.877 29.137 118.727 29.137s83.241-10.528 118.727-29.138v-143.313l-50.823-5.154z" fill="#7584f2"/></g><g><path d="m323.904 334.395v85.054h-68.26v92.548c.119 0 .237.003.356.003 42.85 0 83.24-10.528 118.727-29.138v-143.313z" fill="#606aea"/></g><g><path d="m350.294 195.305h-188.589v-42.768c0-41.924 33.987-75.911 75.911-75.911h36.767c41.924 0 75.911 33.986 75.911 75.911z" fill="#7584f2"/></g><g><path d="m350.294 152.537c0-41.925-33.986-75.911-75.911-75.911h-18.74v118.679h94.65v-42.768z" fill="#606aea"/></g><g><path d="m317.004 231.229c-40.464-8.108-81.544-8.108-122.008 0-17.414 3.489-33.291-12.31-33.291-32.944v-5.557c62.097-19.508 126.492-19.508 188.589 0v5.557c0 20.634-15.876 36.434-33.29 32.944z" fill="#606aea"/></g><g><path d="m255.644 178.101v47.052c20.505-.024 41.01 1.999 61.36 6.076 17.414 3.489 33.291-12.311 33.291-32.944v-5.556c-31.165-9.791-62.909-14.665-94.651-14.628z" fill="#4855b7"/></g><g><ellipse cx="382.546" cy="358.23" fill="#ffce00" rx="76.77" ry="76.77" transform="matrix(.707 -.707 .707 .707 -141.262 375.424)"/></g><g><path d="m382.546 435c42.399 0 76.77-34.371 76.77-76.77s-34.371-76.77-76.77-76.77c-.056 0-.11.004 0 .215z" fill="#fdba12"/></g><g><path d="m382.546 297.388c-14.81 0-26.817 12.006-26.817 26.817 0 9.767 5.221 18.313 13.024 23.002v9.23l-5.863 5.863 5.075 5.075-5.075 5.074 5.863 5.863v7.936l-5.863 5.863 5.863 5.863v7.305l13.793 13.793 13.793-13.793v-58.072c7.803-4.689 13.024-13.236 13.024-23.002 0-14.811-12.006-26.817-26.817-26.817zm0 21.235c-4.124 0-7.467-3.343-7.467-7.467s3.343-7.467 7.467-7.467 7.467 3.343 7.467 7.467-3.343 7.467-7.467 7.467z" fill="#555a66"/></g><path d="m382.546 297.388v6.3c4.124 0 7.467 3.343 7.467 7.467s-3.343 7.467-7.467 7.467v100.375.074l13.793-13.793v-58.072c7.803-4.689 13.024-13.236 13.024-23.002 0-14.809-12.007-26.816-26.817-26.816z" fill="#333940"/></g></svg>